<svg width="12" height="11" viewBox="0 0 12 11" fill="none" xmlns="http://www.w3.org/2000/svg">
<path d="M5.4021 0.370791C4.5504 2.09767 2.90329 3.29508 0.997937 3.57287C0.452103 3.65203 0.233353 4.32495 0.629187 4.71036C2.0077 6.05366 2.63638 7.99046 2.31044 9.88743C2.21669 10.4353 2.79377 10.8458 3.2771 10.5895C4.98181 9.69347 7.01823 9.69347 8.72294 10.5895C9.20627 10.8437 9.78335 10.4353 9.6896 9.88743C9.36366 7.99046 9.99234 6.05366 11.3709 4.71036C11.7667 4.32495 11.5479 3.65203 11.0021 3.57287C9.09675 3.29508 7.44964 2.09767 6.59794 0.370791C6.35419 -0.120874 5.64794 -0.127124 5.4021 0.370791Z" fill="white"/>
</svg>
